<svg width="246" height="272" viewBox="0 0 246 272" fill="none" xmlns="http://www.w3.org/2000/svg">
<path d="M245.073 213.804C247.147 208.863 241.22 204.654 236.248 206.85C226.311 211.212 215.574 213.456 204.722 213.438C162.174 213.438 127.689 179.644 127.689 137.951C127.673 123.873 131.672 110.084 139.218 98.199C142.105 93.6443 138.638 87.341 133.352 88.683C92.5933 99.0835 62.5 135.399 62.5 178.597C62.5 229.908 104.946 271.5 157.314 271.5C196.964 271.5 230.921 247.659 245.073 213.804Z" fill="url(#paint0_linear_2_23)"/>
<path d="M190.712 89.5472C185.324 85.9482 178.898 92.3735 182.487 97.7618L188.892 107.369C191.49 111.265 192.877 115.842 192.877 120.525C192.877 125.208 191.49 129.785 188.892 133.681L182.487 143.288C178.898 148.677 185.334 155.102 190.722 151.503L200.319 145.098C204.215 142.5 208.792 141.113 213.475 141.113C218.158 141.113 222.735 142.5 226.631 145.098L236.238 151.503C241.627 155.102 248.052 148.677 244.453 143.288L238.048 133.681C235.45 129.785 234.063 125.208 234.063 120.525C234.063 115.842 235.45 111.265 238.048 107.369L244.453 97.7618C248.052 92.3735 241.626 85.9482 236.228 89.5472L226.631 95.9522C222.735 98.5504 218.158 99.937 213.475 99.937C208.792 99.937 204.215 98.5504 200.319 95.9522L190.712 89.5472Z" fill="url(#paint1_linear_2_23)"/>
<path d="M0 0V270.181H42V269.659L42.3731 269.874L198.185 0H149.687L42 186.52V0H0Z" fill="url(#paint2_linear_2_23)"/>
<defs>
<linearGradient id="paint0_linear_2_23" x1="122.749" y1="0" x2="122.749" y2="271.5" gradientUnits="userSpaceOnUse">
<stop stop-color="#509D9E"/>
<stop offset="1" stop-color="white"/>
</linearGradient>
<linearGradient id="paint1_linear_2_23" x1="122.749" y1="0" x2="122.749" y2="271.5" gradientUnits="userSpaceOnUse">
<stop stop-color="#509D9E"/>
<stop offset="1" stop-color="white"/>
</linearGradient>
<linearGradient id="paint2_linear_2_23" x1="99.0924" y1="0" x2="99.0924" y2="270.181" gradientUnits="userSpaceOnUse">
<stop stop-color="#662599"/>
<stop offset="1" stop-color="#3DFFA2"/>
</linearGradient>
</defs>
</svg>
